<svg width="800" height="800" viewBox="0 0 800 800" fill="none" xmlns="http://www.w3.org/2000/svg">
<rect width="800" height="800" rx="50" fill="#0D0D0D"/>
<mask id="mask0_33_2" style="mask-type:luminance" maskUnits="userSpaceOnUse" x="138" y="59" width="361" height="118">
<path d="M138 59.2706H498.772V176.969H138V59.2706Z" fill="white"/>
</mask>
<g mask="url(#mask0_33_2)">
<path d="M110.978 32.2485H688.056V767.118H110.978V32.2485Z" fill="#66538D"/>
</g>
<mask id="mask1_33_2" style="mask-type:luminance" maskUnits="userSpaceOnUse" x="300" y="622" width="362" height="118">
<path d="M300.284 622.156H661.057V739.798H300.284V622.156Z" fill="white"/>
</mask>
<g mask="url(#mask1_33_2)">
<path d="M110.978 32.2483H688.056V767.118H110.978V32.2483Z" fill="#66538D"/>
</g>
<mask id="mask2_33_2" style="mask-type:luminance" maskUnits="userSpaceOnUse" x="138" y="59" width="118" height="362">
<path d="M138 59.2706H255.648V420.043H138V59.2706Z" fill="white"/>
</mask>
<g mask="url(#mask2_33_2)">
<path d="M110.978 32.2485H688.056V767.118H110.978V32.2485Z" fill="#F4F4F4"/>
</g>
<mask id="mask3_33_2" style="mask-type:luminance" maskUnits="userSpaceOnUse" x="543" y="389" width="119" height="349">
<path d="M543.358 389.836H661.056V737.853H543.358V389.836Z" fill="white"/>
</mask>
<g mask="url(#mask3_33_2)">
<path d="M110.978 32.2485H688.056V767.118H110.978V32.2485Z" fill="#F4F4F4"/>
</g>
<mask id="mask4_33_2" style="mask-type:luminance" maskUnits="userSpaceOnUse" x="139" y="59" width="524" height="682">
<path d="M139.781 59H662.139V740.068H139.781V59Z" fill="white"/>
</mask>
<g mask="url(#mask4_33_2)">
<mask id="mask5_33_2" style="mask-type:luminance" maskUnits="userSpaceOnUse" x="140" y="59" width="522" height="681">
<path d="M140.001 59.2706L257.699 248.898L541.949 739.854H661.057L543.358 534.771L268.184 59.2706H140.001Z" fill="white"/>
</mask>
<g mask="url(#mask5_33_2)">
<path d="M110.978 32.2485H688.056V767.118H110.978V32.2485Z" fill="#F4F4F4"/>
</g>
</g>
</svg>
